<svg xmlns="http://www.w3.org/2000/svg" viewBox="0 0 1200 600" role="img" aria-label="Ilustração de capa para curso productivity">
<defs><linearGradient id="bg" x1="0" y1="0" x2="1" y2="1"><stop stop-color="#0c0d14"/><stop offset=".52" stop-color="#52d6b2" stop-opacity=".25"/><stop offset="1" stop-color="#a9a2ff" stop-opacity=".32"/></linearGradient><linearGradient id="accent" x1="0" y1="0" x2="1" y2="1"><stop stop-color="#52d6b2"/><stop offset="1" stop-color="#a9a2ff"/></linearGradient><radialGradient id="glow"><stop stop-color="#52d6b2" stop-opacity=".42"/><stop offset="1" stop-color="#52d6b2" stop-opacity="0"/></radialGradient><filter id="blur"><feGaussianBlur stdDeviation="45"/></filter></defs>
<rect width="1200" height="600" rx="32" fill="#0d0d13"/><rect width="1200" height="600" rx="32" fill="url(#bg)"/><ellipse cx="600" cy="300" rx="470" ry="245" fill="url(#glow)" filter="url(#blur)"/>

<rect x="344" y="117" width="510" height="369" rx="28" fill="#141a20" stroke="#fff" stroke-opacity=".27" stroke-width="2"/>
<rect x="344" y="117" width="510" height="75" rx="28" fill="#fff" fill-opacity=".045"/><path d="M344 164v28h510v-28" fill="#fff" fill-opacity=".045"/>
<circle cx="389" cy="154" r="7" fill="#ff8c92"/><circle cx="414" cy="154" r="7" fill="#ffd27e"/><circle cx="439" cy="154" r="7" fill="#75dfb7"/>
<rect x="480" y="143" width="185" height="14" rx="7" fill="#fff" fill-opacity=".7"/>
<g stroke="#fff" stroke-opacity=".12"><path d="M388 236h420M388 291h420M388 346h420M388 401h420M448 218v224M508 218v224M568 218v224M628 218v224M688 218v224M748 218v224"/></g>
<rect x="461" y="246" width="113" height="35" rx="10" fill="url(#accent)"/><rect x="585" y="302" width="136" height="35" rx="10" fill="#9f8dff" fill-opacity=".72"/><rect x="523" y="358" width="163" height="35" rx="10" fill="#63dabc" fill-opacity=".65"/>
<circle cx="783" cy="263" r="18" fill="#fff" fill-opacity=".1"/><path d="M775 263l6 6 11-13" fill="none" stroke="#fff" stroke-width="3" stroke-linecap="round" stroke-linejoin="round"/>
<circle cx="297" cy="220" r="12" fill="#a8f5d6"/><circle cx="896" cy="399" r="11" fill="#bcaaff"/>
<path d="M0 520c200-50 360 60 600 20s390-100 600-30v90H0z" fill="#09090b" fill-opacity=".16"/>
</svg>